<svg xmlns="http://www.w3.org/2000/svg" width="1600" height="1000" viewBox="0 0 1600 1000">
<style>
.bg{fill:#F5F2EC} .title{font:700 42px Arial;fill:#172027} .sub{font:20px Arial;fill:#4B5860} .h2{font:700 17px Arial;fill:#172027;letter-spacing:1.5px} .label{font:700 14px Arial;fill:#172027} .small{font:13px Arial;fill:#5C676D} .mass{fill:#E7D8C0;stroke:#172027;stroke-width:3} .dark{fill:#6A4A38} .glass{fill:#2E6172;stroke:#172027;stroke-width:2} .accent{fill:#9C2F2F} .dim{stroke:#6B777D;stroke-width:2;stroke-dasharray:6 6} .module{fill:white;stroke:#A4ADB0;stroke-width:2} .panel{fill:white;stroke:#C9CECF;stroke-width:2}
</style>
<rect class="bg" width="1600" height="1000"/>
<text class="title" x="80" y="78">BAHRAINI VILLA MODULAR KIT</text><text class="sub" x="80" y="112">Riffa • Saar • Budaiya • Isa Town</text><rect x="1080" y="72" width="46" height="46" rx="6" fill="#F2E8D5"/><rect x="1138" y="72" width="46" height="46" rx="6" fill="#D8C3A5"/><rect x="1196" y="72" width="46" height="46" rx="6" fill="#B88A63"/><rect x="1254" y="72" width="46" height="46" rx="6" fill="#9C2F2F"/><rect x="1312" y="72" width="46" height="46" rx="6" fill="#1C5063"/><rect x="1370" y="72" width="46" height="46" rx="6" fill="#1C252B"/><rect x="1428" y="72" width="46" height="46" rx="6" fill="#3E6B57"/><rect x="1486" y="72" width="46" height="46" rx="6" fill="#D6A928"/>
<g transform="translate(80 190)"><text class="h2" x="0" y="0">FRONT ORTHOGRAPHIC</text><rect class="mass" x="0" y="35" width="520" height="250" rx="8"/><rect class="dark" x="55" y="120" width="95" height="165"/><rect class="glass" x="205" y="95" width="110" height="90"/><rect class="glass" x="360" y="95" width="110" height="90"/><rect class="accent" x="185" y="215" width="310" height="18"/><line class="dim" x1="0" y1="310" x2="520" y2="310"/><text class="small" x="210" y="335">12–18 m typical assembly</text></g><g transform="translate(660 190)"><text class="h2" x="0" y="0">SIDE ORTHOGRAPHIC</text><rect class="mass" x="0" y="35" width="360" height="250" rx="8"/><rect class="glass" x="60" y="95" width="90" height="90"/><rect class="dark" x="235" y="120" width="70" height="165"/><line class="dim" x1="0" y1="310" x2="360" y2="310"/><text class="small" x="110" y="335">8–14 m depth</text></g>
<g transform="translate(1110 190)"><text class="h2">THREE-QUARTER MASSING</text><polygon points="20,245 250,285 410,200 180,165" fill="#D8C3A5" stroke="#172027" stroke-width="3"/><polygon points="20,85 180,35 410,78 250,130" fill="#F2E8D5" stroke="#172027" stroke-width="3"/><polygon points="20,85 20,245 250,285 250,130" fill="#E7D8C0" stroke="#172027" stroke-width="3"/><polygon points="250,130 410,78 410,200 250,285" fill="#C9B08B" stroke="#172027" stroke-width="3"/><rect x="75" y="135" width="70" height="90" fill="#2E6172"/><rect x="165" y="160" width="48" height="107" fill="#6A4A38"/></g>
<text class="h2" x="80" y="545">MODULAR EXPLODED SET</text><g transform="translate(80 590)"><rect class="module" width="210" height="68" rx="8"/><text class="label" x="105" y="28" text-anchor="middle">solid wall</text><text class="small" x="105" y="49" text-anchor="middle">modular / grid-safe</text></g><g transform="translate(330 590)"><rect class="module" width="210" height="68" rx="8"/><text class="label" x="105" y="28" text-anchor="middle">window wall</text><text class="small" x="105" y="49" text-anchor="middle">modular / grid-safe</text></g><g transform="translate(580 590)"><rect class="module" width="210" height="68" rx="8"/><text class="label" x="105" y="28" text-anchor="middle">door wall</text><text class="small" x="105" y="49" text-anchor="middle">modular / grid-safe</text></g><g transform="translate(830 590)"><rect class="module" width="210" height="68" rx="8"/><text class="label" x="105" y="28" text-anchor="middle">corner</text><text class="small" x="105" y="49" text-anchor="middle">modular / grid-safe</text></g><g transform="translate(80 695)"><rect class="module" width="210" height="68" rx="8"/><text class="label" x="105" y="28" text-anchor="middle">balcony</text><text class="small" x="105" y="49" text-anchor="middle">modular / grid-safe</text></g><g transform="translate(330 695)"><rect class="module" width="210" height="68" rx="8"/><text class="label" x="105" y="28" text-anchor="middle">parapet</text><text class="small" x="105" y="49" text-anchor="middle">modular / grid-safe</text></g><g transform="translate(580 695)"><rect class="module" width="210" height="68" rx="8"/><text class="label" x="105" y="28" text-anchor="middle">pedestrian gate</text><text class="small" x="105" y="49" text-anchor="middle">modular / grid-safe</text></g><g transform="translate(830 695)"><rect class="module" width="210" height="68" rx="8"/><text class="label" x="105" y="28" text-anchor="middle">vehicle gate</text><text class="small" x="105" y="49" text-anchor="middle">modular / grid-safe</text></g><g transform="translate(80 800)"><rect class="module" width="210" height="68" rx="8"/><text class="label" x="105" y="28" text-anchor="middle">boundary wall</text><text class="small" x="105" y="49" text-anchor="middle">modular / grid-safe</text></g><g transform="translate(330 800)"><rect class="module" width="210" height="68" rx="8"/><text class="label" x="105" y="28" text-anchor="middle">canopy</text><text class="small" x="105" y="49" text-anchor="middle">modular / grid-safe</text></g><g transform="translate(580 800)"><rect class="module" width="210" height="68" rx="8"/><text class="label" x="105" y="28" text-anchor="middle">stair</text><text class="small" x="105" y="49" text-anchor="middle">modular / grid-safe</text></g><g transform="translate(830 800)"><rect class="module" width="210" height="68" rx="8"/><text class="label" x="105" y="28" text-anchor="middle">roof utilities</text><text class="small" x="105" y="49" text-anchor="middle">modular / grid-safe</text></g>
<rect class="panel" x="1075" y="560" width="445" height="330" rx="12"/><text class="h2" x="1110" y="605">PRODUCTION INTENT</text><text class="small" x="1110" y="620">• 3 m structural bay</text><text class="small" x="1110" y="648">• ≤3 materials per assembly</text><text class="small" x="1110" y="676">• 1024 shared trim atlas</text><text class="small" x="1110" y="704">• box/prism collision</text><text class="small" x="1110" y="732">• LOD1 at ~40%</text><text class="small" x="1110" y="760">• roof clutter culls at 35 m</text>
<text class="small" x="80" y="955">Bahrain Brick • original fictional production reference • Godot 4.3 Android • no copied landmark geometry • not a final render</text>
</svg>